<svg xmlns="http://www.w3.org/2000/svg" xmlns:xlink="http://www.w3.org/1999/xlink" version="1.1" x="0px" y="0px" viewBox="0 0 100 125" enable-background="new 0 0 100 100" xml:space="preserve"><path d="M56.114,26.899H50c-0.676,0-1.223-0.547-1.223-1.223v-6.114c0-0.675,0.547-1.223,1.223-1.223h6.114  c0.675,0,1.223,0.548,1.223,1.223v6.114C57.337,26.352,56.789,26.899,56.114,26.899z M51.223,24.454h3.669v-3.668h-3.669V24.454z"/><path d="M56.114,39.128H50c-0.676,0-1.223-0.548-1.223-1.223v-6.114c0-0.675,0.547-1.223,1.223-1.223h6.114  c0.675,0,1.223,0.547,1.223,1.223v6.114C57.337,38.581,56.789,39.128,56.114,39.128z M51.223,36.682h3.669v-3.668h-3.669V36.682z"/><path d="M56.114,51.356H50c-0.676,0-1.223-0.548-1.223-1.223v-6.115c0-0.675,0.547-1.222,1.223-1.222h6.114  c0.675,0,1.223,0.547,1.223,1.222v6.115C57.337,50.809,56.789,51.356,56.114,51.356z M51.223,48.911h3.669v-3.668h-3.669V48.911z"/><path d="M50,81.928H31.657c-0.675,0-1.223-0.548-1.223-1.223V68.476c0-0.675,0.548-1.223,1.223-1.223H50  c0.676,0,1.223,0.547,1.223,1.223v12.229C51.223,81.38,50.676,81.928,50,81.928z M33.186,76.73h15.897l-0.306-7.031H32.881  L33.186,76.73z"/><path d="M81.146,11.712L62.938,5.647l-0.134-0.049c-0.024-0.013-0.05-0.013-0.073-0.024c-0.063-0.013-0.135-0.037-0.197-0.037  C62.424,5.512,62.326,5.5,62.217,5.5H19.429c-1.015,0-1.834,0.819-1.834,1.834v85.599c0,1.016,0.819,1.834,1.834,1.834H80.57  c1.016,0,1.835-0.819,1.835-1.834V13.449C82.405,12.654,81.903,11.957,81.146,11.712z M60.395,91.099H21.264V9.168h39.131V91.099z   M64.063,91.099v-0.709l0.709,0.709H64.063z M68.245,91.099l-4.183-4.182v-2.642l6.823,6.823H68.245z M74.359,91.099L64.063,80.802  v-2.642L77,91.099H74.359z M78.736,89.362L64.063,74.688v-2.641l14.674,14.674V89.362z M78.736,83.248L64.063,68.574v-2.642  l14.674,14.674V83.248z M78.736,77.134L64.063,62.459v-2.642l14.674,14.674V77.134z M78.736,71.02L64.063,56.346v-2.642  l14.674,14.674V71.02z M78.736,64.906L64.063,50.231V47.59l14.674,14.674V64.906z M78.736,58.791L64.063,44.118v-2.642  l14.674,14.673V58.791z M78.736,52.677L64.063,38.003v-2.642l14.674,14.674V52.677z M78.736,46.563L64.063,31.889v-2.642  l14.674,14.674V46.563z M78.736,40.449L64.063,25.775v-2.642l14.674,14.674V40.449z M78.736,34.334L64.063,19.66v-2.641  l14.674,14.674V34.334z M78.736,28.22L64.063,13.546v-2.642l14.674,14.674V28.22z M78.736,22.106L67.73,11.101l3.975,1.321  l7.031,7.043V22.106z M78.736,15.992l-1.834-1.834l1.834,0.612V15.992z"/><path d="M45.318,63H25c-0.828,0-1.5-0.671-1.5-1.5V19.875c0-0.829,0.672-1.5,1.5-1.5h20.318c0.828,0,1.5,0.671,1.5,1.5V61.5  C46.818,62.329,46.146,63,45.318,63z M26.5,60h17.318V21.375H26.5V60z"/><text x="0" y="115" fill="#000000" font-size="5px" font-weight="bold" font-family="'Helvetica Neue', Helvetica, Arial-Unicode, Arial, Sans-serif">Created by Dan Hetteix</text><text x="0" y="120" fill="#000000" font-size="5px" font-weight="bold" font-family="'Helvetica Neue', Helvetica, Arial-Unicode, Arial, Sans-serif">from the Noun Project</text></svg>