<svg xmlns="http://www.w3.org/2000/svg" xmlns:xlink="http://www.w3.org/1999/xlink" version="1.1" x="0px" y="0px" viewBox="0 0 100 125" enable-background="new 0 0 100 100" xml:space="preserve"><path d="M18,5v90h64V5H18z M68,27h3v6h-3V27z M63,83H24v-8h39V83z M66,70H21V8h45V70z M80,70H68v-4h12V70z M80,50H68V35h12V50z"/><rect x="70" y="43" width="2" height="2"/><rect x="76" y="43" width="2" height="2"/><rect x="73" y="37" width="2" height="2"/><rect x="76" y="37" width="2" height="2"/><rect x="70" y="46" width="2" height="2"/><rect x="76" y="40" width="2" height="2"/><rect x="70" y="40" width="2" height="2"/><rect x="73" y="40" width="2" height="2"/><rect x="70" y="37" width="2" height="2"/><rect x="73" y="46" width="5" height="2"/><rect x="73" y="43" width="2" height="2"/><path d="M62,76H25v6h37V76z M61,80H26v-1h35V80z"/><rect x="23" y="67" width="41" height="1"/><rect x="24" y="60" width="3" height="6"/><rect x="30" y="60" width="3" height="6"/><rect x="36" y="60" width="3" height="6"/><rect x="42" y="60" width="3" height="6"/><rect x="48" y="60" width="3" height="6"/><rect x="54" y="60" width="3" height="6"/><rect x="60" y="60" width="3" height="6"/><rect x="23" y="57" width="41" height="1"/><rect x="23" y="47" width="41" height="1"/><rect x="24" y="50" width="3" height="6"/><rect x="30" y="50" width="3" height="6"/><rect x="36" y="50" width="3" height="6"/><rect x="42" y="50" width="3" height="6"/><rect x="48" y="50" width="3" height="6"/><rect x="54" y="50" width="3" height="6"/><rect x="60" y="50" width="3" height="6"/><polygon points="26,41 26,40 25,40 25,41 24,41 24,46 27,46 27,41 "/><polygon points="32,41 32,40 31,40 31,41 30,41 30,46 33,46 33,41 "/><polygon points="38,41 38,40 37,40 37,41 36,41 36,46 39,46 39,41 "/><polygon points="44,41 44,40 43,40 43,41 42,41 42,46 45,46 45,41 "/><polygon points="50,41 50,40 49,40 49,41 48,41 48,46 51,46 51,41 "/><polygon points="56,41 56,40 55,40 55,41 54,41 54,46 57,46 57,41 "/><polygon points="62,41 62,40 61,40 61,41 60,41 60,46 63,46 63,41 "/><rect x="23" y="37" width="41" height="1"/><rect x="23" y="27" width="41" height="1"/><polygon points="26,31 26,30 25,30 25,31 24,31 24,36 27,36 27,31 "/><polygon points="32,31 32,30 31,30 31,31 30,31 30,36 33,36 33,31 "/><polygon points="38,31 38,30 37,30 37,31 36,31 36,36 39,36 39,31 "/><polygon points="44,31 44,30 43,30 43,31 42,31 42,36 45,36 45,31 "/><polygon points="50,31 50,30 49,30 49,31 48,31 48,36 51,36 51,31 "/><polygon points="56,31 56,30 55,30 55,31 54,31 54,36 57,36 57,31 "/><polygon points="62,31 62,30 61,30 61,31 60,31 60,36 63,36 63,31 "/><path d="M26,19.092v-1.498h0.375V17h-1.75v0.594H25v1.498c-0.581,0.207-1,0.756-1,1.408v4c0,0.829,0.671,1.5,1.5,1.5  s1.5-0.671,1.5-1.5v-4C27,19.848,26.581,19.298,26,19.092z"/><path d="M32,19.092v-1.498h0.375V17h-1.75v0.594H31v1.498c-0.581,0.207-1,0.756-1,1.408v4c0,0.829,0.671,1.5,1.5,1.5  s1.5-0.671,1.5-1.5v-4C33,19.848,32.581,19.298,32,19.092z"/><path d="M38,19.092v-1.498h0.375V17h-1.75v0.594H37v1.498c-0.581,0.207-1,0.756-1,1.408v4c0,0.829,0.671,1.5,1.5,1.5  s1.5-0.671,1.5-1.5v-4C39,19.848,38.581,19.298,38,19.092z"/><path d="M44,19.092v-1.498h0.375V17h-1.75v0.594H43v1.498c-0.581,0.207-1,0.756-1,1.408v4c0,0.829,0.671,1.5,1.5,1.5  s1.5-0.671,1.5-1.5v-4C45,19.848,44.581,19.298,44,19.092z"/><path d="M50,19.092v-1.498h0.375V17h-1.75v0.594H49v1.498c-0.581,0.207-1,0.756-1,1.408v4c0,0.829,0.671,1.5,1.5,1.5  c0.828,0,1.5-0.671,1.5-1.5v-4C51,19.848,50.581,19.298,50,19.092z"/><path d="M56,19.092v-1.498h0.375V17h-1.75v0.594H55v1.498c-0.581,0.207-1,0.756-1,1.408v4c0,0.829,0.672,1.5,1.5,1.5  s1.5-0.671,1.5-1.5v-4C57,19.848,56.581,19.298,56,19.092z"/><path d="M62,19.092v-1.498h0.375V17h-1.75v0.594H61v1.498c-0.581,0.207-1,0.756-1,1.408v4c0,0.829,0.672,1.5,1.5,1.5  s1.5-0.671,1.5-1.5v-4C63,19.848,62.581,19.298,62,19.092z"/><rect x="23" y="10" width="41" height="5"/><rect x="69" y="68" width="10" height="1"/><rect x="69" y="28" width="1" height="4"/><text x="0" y="115" fill="#000000" font-size="5px" font-weight="bold" font-family="'Helvetica Neue', Helvetica, Arial-Unicode, Arial, Sans-serif">Created by Jaime Carrion</text><text x="0" y="120" fill="#000000" font-size="5px" font-weight="bold" font-family="'Helvetica Neue', Helvetica, Arial-Unicode, Arial, Sans-serif">from the Noun Project</text></svg>