<?xml version="1.0" encoding="UTF-8" standalone="no"?>
<svg xmlns:dc="http://purl.org/dc/elements/1.1/" xmlns:cc="http://creativecommons.org/ns#" xmlns:rdf="http://www.w3.org/1999/02/22-rdf-syntax-ns#" xmlns:svg="http://www.w3.org/2000/svg" xmlns="http://www.w3.org/2000/svg" version="1.1" id="map" viewBox="0 0 1650 2050"
    height="100%" width="100%">
    <defs>
        <!-- Background filter and gradient -->
        <radialGradient id="canvas-grad" cx="0%" cy="0%" r="100%" gradientUnits="objectBoundingBox">
            <stop offset="5%" style="stop-color:rgb(247, 247, 247); stop-opacity:1"></stop>
            <stop offset="42%" style="stop-color:rgb(237, 237, 237); stop-opacity:1"></stop>
        </radialGradient>
        <filter id="canvas-filter" primitiveUnits="objectBoundingBox" x="0" y="0">
            <feGaussianBlur in="SourceAlpha" stdDeviation="0.009"></feGaussianBlur>
            <feOffset dx="0.015" dy="0.021" result="offsetblur"></feOffset>
            <feFlood flood-color="rgba(0, 0, 0, 0.6)"></feFlood>
            <feComposite in2="offsetblur" operator="in"></feComposite>
            <feMerge>
                <feMergeNode></feMergeNode>
                <feMergeNode in="SourceGraphic"></feMergeNode>
            </feMerge>
        </filter>

        <!-- highlight pattern -->
        <pattern id="highlighter" x="0" y="0" width="1" height="1" patternContentUnits="objectBoundingBox">
            <linearGradient id="gradHor" gradientUnits="objectBoundingBox">
                <stop class="outer" offset=".05" />
                <stop class="inner" offset=".05" />
                <stop class="inner" offset=".95" />
                <stop class="outer" offset=".95" />
            </linearGradient>
            <linearGradient id="gradVert" gradientUnits="objectBoundingBox" x1="0" y1="0" x2="0" y2="1">
                <stop class="outer" offset=".05" />
                <stop class="inner" offset=".05" stop-opacity="0" />
                <stop class="inner" offset=".95" stop-opacity="0" />
                <stop class="outer" offset=".95" />
            </linearGradient>
            <rect fill="url(#gradHor)" x="0" y="0" width="1" height="1" />
            <rect fill="url(#gradVert)" x="0" y="0" width="1" height="1" />
            <!--<circle cx="0.5" cy="0.5" r="0.25" fill="yellow" />-->
        </pattern>

        <!-- lines that cross out a rectangle -->
        <g id="cross-out">
            <line x1="0" y1="0" x2="1" y2="1" />
            <line x1="0" y1="1" x2="1" y2="0" />
        </g>
        <!-- fill for filtered out locations -->
        <pattern id="filter-out" x="0" y="0" width="1" height="1" patternContentUnits="objectBoundingBox">
            <rect x="0" y="0" width="1" height="1" />
            <use xlink:href="#cross-out" />
        </pattern>
        <!-- fill for inner rectangular walls -->
        <pattern id="inner-rect-wall" x="0" y="0" width="1" height="1" patternContentUnits="objectBoundingBox">
            <use xlink:href="#cross-out" />
        </pattern>
    </defs>

    <!-- BACKGROUND CANVAS -->
    <rect height="2000" width="1600" class="canvas" y="0" x="0" rx="7%" ry="12%"></rect>
    <g class="wall">
        <path d="m 50,50 1500,0 0,1000 -700,0 0,900 -800,0 z" class="wall" id="outer-border" />
    </g>

    <g class="legend">
        <!-- Map legend/key -->
        <g class="legend-title">
            <text x="900" y="1100">DEPARTMENTS/UTILITIES</text>
        </g>

        <g class="dep-list" transform="translate(875, 1150)">
            <g ng-repeat="dep in vm.deps.slice(0, 12)" ng-class="dep.depCode" data-code="{{ dep.depCode }}" ng-mouseenter="vm.legendHover($event)" ng-mouseleave="vm.legendHover($event)">
                <text class="dep-list-text normal-text" ng-attr-y="{{ $index * 70 }}">{{ dep.name }}</text>
                <rect class="dep-list-colorbox" x="645" ng-attr-y="{{ -25 + $index * 70}}"></rect>
            </g>

            <!--<g ng-repeat="dep in vm.deps.slice(12)" ng-class="dep.depCode" data-code="{{ dep.depCode }}" ng-mouseenter="vm.legendHover($event)" ng-mouseleave="vm.legendHover($event)">-->
            <!--    <text class="dep-list-text normal-text" x="400" ng-attr-y="{{ $index * 100 }}">{{ dep.name }}</text>-->
            <!--    <rect class="dep-list-colorbox" x="750" ng-attr-y="{{ -25 + $index * 100}}"></rect>-->
            <!--</g>-->
        </g> <!-- End Department List -->
    </g>
    <!-- End Map legend group -->

    <g class="non-walls" transform="translate(50,50)">
        <g class="paths">
            <rect y="200" x="0" height="125" width="150" id="101" class="loc path" />
            <rect y="200" x="150" height="125" width="150" id="102" class="loc path" />
            <rect y="200" x="300" height="125" width="150" id="103" class="loc path" />
            <rect y="200" x="450" height="125" width="150" id="104" class="loc path" />
            <rect y="200" x="600" height="125" width="150" id="105" class="loc path" />
            <rect y="200" x="750" height="125" width="150" id="106" class="loc path" />
            <rect y="200" x="900" height="125" width="150" id="107" class="loc path" />
            <rect y="200" x="1050" height="125" width="150" id="108" class="loc path" />
            <rect y="200" x="1200" height="125" width="100" id="109" class="loc path" />

            <rect y="325" x="1150" height="125" width="150" id="110" class="loc path" />
            <rect y="450" x="1150" height="125" width="150" id="111" class="loc path" />

            <rect y="575" x="1150" height="175" width="150" id="112" class="loc path" />
            <rect y="575" x="1300" height="100" width="150" id="113" class="loc path" />
            <rect y="675" x="1300" height="75" width="150" id="114" class="loc path" />
            <rect y="750" x="1150" height="50" width="150" id="115" class="loc path" />
            <rect y="750" x="1300" height="50" width="200" id="116" class="loc path" />
            <rect y="750" x="1100" height="50" width="50" id="117" class="loc path" />
            <rect y="750" x="950" height="50" width="150" id="118" class="loc path" />
            <rect y="750" x="800" height="50" width="150" id="119" class="loc path" />
            <rect y="750" x="700" height="50" width="100" id="120" class="loc path" />
            <rect y="750" x="650" height="50" width="50" id="121" class="loc path" />
            <rect y="750" x="500" height="50" width="150" id="122" class="loc path" />

            <rect y="325" x="500" height="425" width="100" id="123" class="loc path" />
            <rect y="325" x="450" height="425" width="50" id="124" class="loc path" />
            <rect y="750" x="450" height="50" width="50" id="125" class="loc path" />

            <rect y="325" x="300" height="100" width="150" id="127" class="loc path" />
            <rect y="425" x="300" height="100" width="150" id="128" class="loc path" />
            <rect y="525" x="300" height="100" width="150" id="129" class="loc path" />
            <rect y="625" x="300" height="175" width="150" id="130" class="loc path" />

            <rect y="625" x="200" height="175" width="100" id="132" class="loc path" />

            <rect y="625" x="0" height="175" width="200" id="134" class="loc path" />
            <rect y="325" x="0" height="100" width="150" id="135" class="loc path" />
            <rect y="425" x="0" height="100" width="150" id="136" class="loc path" />
            <rect y="525" x="0" height="100" width="150" id="137" class="loc path" />

            <rect y="800" x="200" height="200" width="100" id="139" class="loc path" />
            <rect y="1000" x="200" height="100" width="100" id="140" class="loc path" />
            <rect y="1000" x="300" height="100" width="150" id="141" class="loc path" />
            <rect y="1000" x="450" height="100" width="50" id="142" class="loc path" />
            <rect y="1100" x="200" height="100" width="100" id="143" class="loc path" />
            <rect y="800" x="450" height="200" width="50" id="144" class="loc path" />
            <rect y="1000" x="500" height="100" width="150" id="145" class="loc path" />
            <rect y="1000" x="650" height="100" width="150" id="146" class="loc path" />

            <rect y="1200" x="200" height="50" width="100" id="148" class="loc path" />
            <rect y="1250" x="200" height="50" width="100" id="149" class="loc path" />
            <rect y="1300" x="125" height="100" width="75" id="150" class="loc path" />
            <rect y="1300" x="200" height="100" width="100" id="151" class="loc path" />
            <rect y="1400" x="125" height="100" width="75" id="152" class="loc path" />
            <rect y="1400" x="200" height="100" width="100" id="153" class="loc path" />
            <rect y="1500" x="200" height="100" width="100" id="154" class="loc path" />

            <rect y="1600" x="200" height="150" width="400" id="156" class="loc path" />

            <rect y="1100" x="450" height="150" width="50" id="158" class="loc path" />
            <rect y="1250" x="450" height="150" width="50" id="159" class="loc path" />
            <path d="m 450,1400 50,0 100,200 -150,0 z" id="160" class="loc path" />

            <rect y="1100" x="300" height="100" width="150" id="162" class="loc path" />
            <rect y="1200" x="300" height="50" width="150" id="163" class="loc path" />
            <rect y="1250" x="300" height="50" width="150" id="164" class="loc path" />
            <rect y="1300" x="300" height="100" width="150" id="165" class="loc path" />
            <rect y="1400" x="300" height="100" width="150" id="166" class="loc path" />
        </g>
        <g class="misc">
            <rect y="325" x="600" height="425" width="100" id="27" class="loc conf" />
            <rect y="550" x="700" height="200" width="150" id="28" class="loc conf" />
            <rect y="450" x="850" height="300" width="300" id="29" class="loc conf" />

            <g id="30" class="loc food">
                <path d="m 700,325 0,0 0,225 150,0 0,-100 100,0 0,-125 z" />
                <image y="355" x="725" width="100" height="150" xlink:href="content/images/map-icons/kitchen.svg"></image>
            </g>

            <g id="31" class="loc broom mbroom">
                <rect y="325" x="950" height="125" width="100" />
                <image y="337" x="950" width="100" height="100" xlink:href="content/images/map-icons/mbroom.svg"></image>
            </g>
            <g id="32" class="loc broom wbroom">
                <rect y="325" x="1050" height="125" width="100" />
                <image y="337" x="1050" width="100" height="100" xlink:href="content/images/map-icons/wbroom.svg"></image>
            </g>

            <g id="33" class="loc stairs-exit" >
                <rect y="675" x="1450" height="75" width="50" />
                <image y="675" x="1450" width="50" height="75" xlink:href="content/images/map-icons/stairs.svg"></image>
            </g>
            <g id="34" class="loc elevator-exit" >
                <rect y="575" x="1450" height="100" width="50" />
                <image y="575" x="1450" width="45" height="100" xlink:href="content/images/map-icons/elevator.svg"></image>
            </g>

            <g id="35" class="loc food kitchen">
                <path d="m 0,1900 0,-300 200,0 0,150 400,0 0,-150 200,0 0,300 z" />
                <image y="1650" x="45" width="125" height="200" xlink:href="content/images/map-icons/kitchen.svg"></image>
                <image y="1650" x="620" width="125" height="200" xlink:href="content/images/map-icons/kitchen.svg"></image>
            </g>

            <g id="36" class="loc broom mbroom">
                <rect y="1300" x="0" height="100" width="125" />
                <image y="1312" x="0" width="125" height="75" xlink:href="content/images/map-icons/mbroom.svg"></image>
            </g>
            <g id="37" class="loc broom wbroom">
            <rect y="1400" x="0" height="100" width="125" />
                <image y="1412" x="0" width="125" height="75" xlink:href="content/images/map-icons/wbroom.svg"></image>
            </g>
        </g>
        <g class="desks">
            <rect y="0" x="0" height="200" width="150" id="1" class="loc desk office isd" />
            <rect y="0" x="150" height="200" width="150" id="2" class="loc desk office isd" />
            <rect y="0" x="300" height="200" width="150" id="3" class="loc desk office isd" />

            <rect y="0" x="449" height="200" width="150" id="4" class="loc desk cubicle euc" />
            <rect y="0" x="600" height="200" width="150" id="5" class="loc desk cubicle euc" />
            <rect y="0" x="750" height="200" width="150" id="6" class="loc desk cubicle euc" />

            <rect y="0" x="900" height="200" width="150" id="7" class="loc desk cubicle branch-dev" />
            <rect y="0" x="1050" height="200" width="150" id="8" class="loc desk cubicle branch-dev" />
            <path d="m 1500,0 -300,0 0,200 100,0 z" id="9" class="loc desk office branch-dev" />

            <path d="m 1500,0 -200,200 0,125 200,0 z" id="10" class="loc desk office hr" />
            <rect y="325" x="1300" height="125" width="200" id="11" class="loc desk cubicle hr" />
            <rect y="450" x="1300" height="125" width="200" id="12" class="loc desk cubicle hr" />

            <rect y="800" x="0" height="400" width="200" id="13" class="loc desk office im-r" />
            <!--<rect y="800" x="200" height="200" width="150" id="14" class="loc desk cubicle im-r" />-->

            <rect y="800" x="500" height="200" width="150" id="15" class="loc desk cubicle compliance" />
            <rect y="800" x="650" height="200" width="150" id="16" class="loc desk cubicle compliance" />
            <rect y="800" x="800" height="200" width="150" id="17" class="loc desk cubicle compliance" />
            <rect y="800" x="950" height="200" width="150" id="18" class="loc desk cubicle compliance" />
            <rect y="800" x="1100" height="200" width="150" id="19" class="loc desk cubicle compliance" />
            <rect y="800" x="1250" height="200" width="250" id="20" class="loc desk office compliance" />

            <rect y="525" x="150" height="100" width="150" id="21" class="loc desk cubicle isd" />
            <rect y="425" x="150" height="100" width="150" id="22" class="loc desk cubicle isd" />
            <rect y="325" x="150" height="100" width="150" id="23" class="loc desk cubicle isd" />

            <rect y="1100" x="500" height="150" width="300" id="24" class="loc desk office compliance" />

            <rect y="1250" x="500" height="150" width="300" id="25" class="loc desk office ops" />
            <path d="m 500,1400 300,0 0,200 -200,0 z" id="26" class="loc desk office ops" />
        </g>
    </g>
</svg>
