<?xml version="1.0" ?><svg height="365.145" id="svg1368" width="439.752" xmlns="http://www.w3.org/2000/svg" xmlns:cc="http://creativecommons.org/ns#" xmlns:dc="http://purl.org/dc/elements/1.1/" xmlns:inkscape="http://www.inkscape.org/namespaces/inkscape" xmlns:rdf="http://www.w3.org/1999/02/22-rdf-syntax-ns#" xmlns:sodipodi="http://sodipodi.sourceforge.net/DTD/sodipodi-0.dtd" xmlns:svg="http://www.w3.org/2000/svg"><defs id="defs1370"><marker id="ArrowEnd" markerHeight="3" markerUnits="strokeWidth" markerWidth="4" orient="auto" refX="0" refY="5" viewBox="0 0 10 10"><path d="M 0 0 L 10 5 L 0 10 z" id="path1373"/></marker><marker id="ArrowStart" markerHeight="3" markerUnits="strokeWidth" markerWidth="4" orient="auto" refX="10" refY="5" viewBox="0 0 10 10"><path d="M 10 0 L 0 5 L 10 10 z" id="path1376"/></marker></defs><g id="g1378"><path d="M 0 323.974L 80.05 323.974L 80.05 242.499L 159.584 242.499L 159.584 160.474L 240.373 160.474L 240.373 79.974L 320.614 79.974L 320.614 0L 439.752 0L 439.752 40.804L 360.55 40.804L 360.55 121.082L 280.218 121.082L 280.218 202.49L 200.05 202.49L 200.05 283.474L 119.55 283.474L 119.55 365.145L 0 365.145L 0 323.974z" id="path1380" style="stroke:none; fill:#000000"/><path d="M 266.757 363.56L 337.55 363.56C 357.05 363.56 357.8 333.56 337.55 333.56L 301.263 333.56L 370.275 264.548C 385.574 249.249 363.935 227.11 347.682 243.363L 279.697 311.536L 279.697 275.621C 279.8 256.121 249.55 255.371 249.504 275.621L 249.504 345.974C 249.504 356.474 256.55 363.56 266.757 363.56z" id="path1382" style="stroke:none; fill:#000000"/></g></svg>