<?xml version="1.0" encoding="UTF-8" standalone="no"?>
<svg xmlns:dc="http://purl.org/dc/elements/1.1/" xmlns:cc="http://creativecommons.org/ns#" xmlns:rdf="http://www.w3.org/1999/02/22-rdf-syntax-ns#" xmlns:svg="http://www.w3.org/2000/svg" xmlns="http://www.w3.org/2000/svg" version="1.1" id="map" viewBox="0 0 1650 2050"
    height="100%" width="100%">
    <defs>
        <!-- Background filter and gradient -->
        <radialGradient id="canvas-grad" cx="0%" cy="0%" r="100%" gradientUnits="objectBoundingBox">
            <stop offset="5%" style="stop-color:rgb(247, 247, 247); stop-opacity:1"></stop>
            <stop offset="42%" style="stop-color:rgb(237, 237, 237); stop-opacity:1"></stop>
        </radialGradient>
        <filter id="canvas-filter" primitiveUnits="objectBoundingBox" x="0" y="0">
            <feGaussianBlur in="SourceAlpha" stdDeviation="0.009"></feGaussianBlur>
            <feOffset dx="0.015" dy="0.021" result="offsetblur"></feOffset>
            <feFlood flood-color="rgba(0, 0, 0, 0.6)"></feFlood>
            <feComposite in2="offsetblur" operator="in"></feComposite>
            <feMerge>
                <feMergeNode></feMergeNode>
                <feMergeNode in="SourceGraphic"></feMergeNode>
            </feMerge>
        </filter>

        <!-- highlight pattern -->
        <pattern id="highlighter" x="0" y="0" width="1" height="1" patternContentUnits="objectBoundingBox">
            <linearGradient id="gradHor" gradientUnits="objectBoundingBox">
                <stop class="outer" offset=".05" />
                <stop class="inner" offset=".05" />
                <stop class="inner" offset=".95" />
                <stop class="outer" offset=".95" />
            </linearGradient>
            <linearGradient id="gradVert" gradientUnits="objectBoundingBox" x1="0" y1="0" x2="0" y2="1">
                <stop class="outer" offset=".05" />
                <stop class="inner" offset=".05" stop-opacity="0" />
                <stop class="inner" offset=".95" stop-opacity="0" />
                <stop class="outer" offset=".95" />
            </linearGradient>
            <rect fill="url(#gradHor)" x="0" y="0" width="1" height="1" />
            <rect fill="url(#gradVert)" x="0" y="0" width="1" height="1" />
            <!--<circle cx="0.5" cy="0.5" r="0.25" fill="yellow" />-->
        </pattern>

        <!-- lines that cross out a rectangle -->
        <g id="cross-out">
            <line x1="0" y1="0" x2="1" y2="1" />
            <line x1="0" y1="1" x2="1" y2="0" />
        </g>
        <!-- fill for filtered out locations -->
        <pattern id="filter-out" x="0" y="0" width="1" height="1" patternContentUnits="objectBoundingBox">
            <rect x="0" y="0" width="1" height="1" />
            <use xlink:href="#cross-out" />
        </pattern>
        <!-- fill for inner rectangular walls -->
        <pattern id="inner-rect-wall" x="0" y="0" width="1" height="1" patternContentUnits="objectBoundingBox">
            <use xlink:href="#cross-out" />
        </pattern>
    </defs>

    <!-- BACKGROUND CANVAS -->
    <rect height="2000" width="1600" class="canvas" y="0" x="0" rx="7%" ry="12%"></rect>
    <g class="wall">
        <path d="m 50,50 1500,0 0,1000 -700,0 0,900 -800,0 z" class="wall" id="outer-border" />
    </g>


    <g class="non-wall" transform="translate(50,50)">
        <g class="misc">
            <rect y="325" x="600" height="425" width="100" id="27" class="loc conf" />
            <rect y="550" x="700" height="200" width="150" id="28" class="loc conf" />
            <rect y="450" x="850" height="300" width="300" id="29" class="loc conf" />
            <path d="m 700,325 0,0 0,225 150,0 0,-100 100,0 0,-125 z" id="30" class="loc food" />
            <rect y="325" x="950" height="125" width="100" id="31" class="loc broom mbroom" />
            <rect y="325" x="1050" height="125" width="100" id="32" class="loc broom wbroom" />

            <rect y="700" x="1450" height="75" width="50" id="33" class="loc stairs-exit" />
            <rect y="335" x="300" height="75" width="50" id="34" class="loc stairs-exit" />
            <rect y="450" x="300" height="150" width="50" id="35" class="loc elevator-exit" />
            <path d="m 0,1900 0,-300 200,0 0,150 400,0 0,-150 200,0 0,300 z" id="36" class="loc food kitchen" />

            <rect y="1300" x="0" height="100" width="125" id="37" class="loc broom mbroom" />
            <rect y="1400" x="0" height="100" width="125" id="38" class="loc broom wbroom" />
        </g>
        <g class="desks">
            <rect y="0" x="0" height="200" width="150" id="1" class="loc desk office isd" />
            <rect y="0" x="150" height="200" width="150" id="2" class="loc desk office isd" />
            <rect y="0" x="300" height="200" width="150" id="3" class="loc desk office isd" />

            <rect y="0" x="449" height="200" width="150" id="4" class="loc desk cubicle euc" />
            <rect y="0" x="600" height="200" width="150" id="5" class="loc desk cubicle euc" />
            <rect y="0" x="750" height="200" width="150" id="6" class="loc desk cubicle euc" />

            <rect y="0" x="900" height="200" width="150" id="7" class="loc desk cubicle branch-dev" />
            <rect y="0" x="1050" height="200" width="150" id="8" class="loc desk cubicle branch-dev" />
            <path d="m 1500,0 -300,0 0,200 100,0 z" id="9" class="loc desk office branch-dev" />

            <path d="m 1500,0 -200,200 0,100 200,0 z" id="10" class="loc desk office hr" />
            <rect y="300" x="1300" height="150" width="200" id="11" class="loc desk cubicle hr" />
            <rect y="450" x="1300" height="150" width="200" id="12" class="loc desk cubicle hr" />

            <rect y="800" x="0" height="400" width="200" id="13" class="loc desk office im-r" />
            <rect y="800" x="200" height="200" width="150" id="14" class="loc desk cubicle im-r" />

            <rect y="800" x="500" height="200" width="150" id="15" class="loc desk cubicle compliance" />
            <rect y="800" x="650" height="200" width="150" id="16" class="loc desk cubicle compliance" />
            <rect y="800" x="800" height="200" width="150" id="17" class="loc desk cubicle compliance" />
            <rect y="800" x="950" height="200" width="150" id="18" class="loc desk cubicle compliance" />
            <rect y="800" x="1100" height="200" width="150" id="19" class="loc desk cubicle compliance" />
            <rect y="800" x="1250" height="200" width="250" id="20" class="loc desk office compliance" />

            <rect y="525" x="150" height="100" width="150" id="21" class="loc desk cubicle isd" />
            <rect y="425" x="150" height="100" width="150" id="22" class="loc desk cubicle isd" />
            <rect y="325" x="150" height="100" width="150" id="23" class="loc desk cubicle isd" />

            <rect y="1100" x="500" height="150" width="300" id="24" class="loc desk office compliance" />

            <rect y="1250" x="500" height="150" width="300" id="25" class="loc desk office ops" />
            <path d="m 500,1400 300,0 0,200 -200,0 z" id="26" class="loc desk office ops" />
        </g>

    </g>
</svg>
